# xmcd
#
# Track frame offsets:
#        150
#        17603
#        30461
#        48187
#        62950
#        76531
#        91884
#        109113
#        121749
#        138457
#        153068
#        166498
#
# Disc length: 2422 seconds
#
# Revision: 0
# Processed by: cddbd v1.5.2PL0 Copyright (c) Steve Scherf et al.
# Submitted via: CDGFix 3.8c
#
DISCID=8309740c
DTITLE=Lee Greenwood - CB20230
DYEAR=1900
DGENRE=Karaoke
TTITLE0=Lee Greenwood - Somebody's Gonna Love You (Vocals)
TTITLE1=Lee Greenwood - Holdin' A Good (Vocals)
TTITLE2=Lee Greenwood - Fool's Gold (Vocals)
TTITLE3=Lee Greenwood - I O U (Vocals)
TTITLE4=Lee Greenwood - You've Got A Good Love Comin' (Vocals)
TTITLE5=Lee Greenwood - God Bless The USA (Vocals)
TTITLE6=Lee Greenwood - Somebody's Gonna Love You
TTITLE7=Lee Greenwood - Holdin' A Good Hand
TTITLE8=Lee Greenwood - Fool's Gold
TTITLE9=Lee Greenwood - I O U
TTITLE10=Lee Greenwood - You've Got A Good Love Comin'
TTITLE11=Lee Greenwood - God Bless The USA
EXTD=
EXTT0=
EXTT1=
EXTT2=
EXTT3=
EXTT4=
EXTT5=
EXTT6=
EXTT7=
EXTT8=
EXTT9=
EXTT10=
EXTT11=
PLAYORDER=
